HIERARCHY
ROOT Hips
{
	OFFSET 56.961102 -16.774715 94.092697
	CHANNELS 6 Xposition Yposition Zposition Xrotation Yrotation Zrotation
	JOINT spine
	{
		OFFSET 0.000000 -0.448574 7.800583
		CHANNELS 3 Xrotation Yrotation Zrotation
		JOINT spine1
		{
			OFFSET 0.000000 -0.000002 10.136398
			CHANNELS 3 Xrotation Yrotation Zrotation
			JOINT spine2
			{
				OFFSET 0.000000 0.000000 9.712509
				CHANNELS 3 Xrotation Yrotation Zrotation
				JOINT Neck
				{
					OFFSET 0.000000 -1.188875 24.936096
					CHANNELS 3 Xrotation Yrotation Zrotation
					JOINT Head
					{
						OFFSET 0.000000 0.000000 7.533844
						CHANNELS 3 Xrotation Yrotation Zrotation
						End Site
						{
							OFFSET 0.000000 6.014017 18.236099
						}
					}
				}
				JOINT RightShoulder
				{
					OFFSET -4.089649 0.569454 10.488800
					CHANNELS 3 Xrotation Yrotation Zrotation
					JOINT RightArm
					{
						OFFSET 0.000000 -0.000002 13.757004
						CHANNELS 3 Xrotation Yrotation Zrotation
						JOINT RightArmRoll
						{
							OFFSET 0.000000 -0.000002 6.944778
							CHANNELS 3 Xrotation Yrotation Zrotation
							JOINT RightForeArm
							{
								OFFSET 0.000000 -0.000004 20.227692
								CHANNELS 3 Xrotation Yrotation Zrotation
								JOINT RightForeArmRoll
								{
									OFFSET 0.000000 0.000000 7.793121
									CHANNELS 3 Xrotation Yrotation Zrotation
									JOINT RightHand
									{
										OFFSET 0.000000 -0.000004 15.639099
										CHANNELS 3 Xrotation Yrotation Zrotation
										End Site
										{
											OFFSET 0.000000 0.000000 0.100006
										}
									}
								}
							}
						}
					}
				}
				JOINT LeftShoulder
				{
					OFFSET 4.089649 0.569454 10.488800
					CHANNELS 3 Xrotation Yrotation Zrotation
					JOINT LeftArm
					{
						OFFSET 0.000000 -0.000002 13.757004
						CHANNELS 3 Xrotation Yrotation Zrotation
						JOINT LeftArmRoll
						{
							OFFSET 0.000000 -0.000002 6.944778
							CHANNELS 3 Xrotation Yrotation Zrotation
							JOINT LeftForeArm
							{
								OFFSET 0.000000 -0.000004 20.227692
								CHANNELS 3 Xrotation Yrotation Zrotation
								JOINT LeftForeArmRoll
								{
									OFFSET 0.000000 0.000000 7.793121
									CHANNELS 3 Xrotation Yrotation Zrotation
									JOINT LeftHand
									{
										OFFSET 0.000000 -0.000004 15.639099
										CHANNELS 3 Xrotation Yrotation Zrotation
										End Site
										{
											OFFSET 0.000000 0.000000 0.100006
										}
									}
								}
							}
						}
					}
				}
			}
		}
	}
	JOINT RightUpLeg
	{
		OFFSET -6.914150 1.063580 -1.267883
		CHANNELS 3 Xrotation Yrotation Zrotation
		JOINT RightUpLegRoll
		{
			OFFSET 0.000000 -0.000003 18.337799
			CHANNELS 3 Xrotation Yrotation Zrotation
			JOINT RightLeg
			{
				OFFSET 0.000000 0.000004 -22.708496
				CHANNELS 3 Xrotation Yrotation Zrotation
				JOINT RightLegRoll
				{
					OFFSET 0.000000 -0.000004 22.782799
					CHANNELS 3 Xrotation Yrotation Zrotation
					JOINT RightFoot
					{
						OFFSET 0.000000 -0.000003 18.962898
						CHANNELS 3 Xrotation Yrotation Zrotation
						JOINT RightToeBase
						{
							OFFSET 0.000000 -0.000003 15.852005
							CHANNELS 3 Xrotation Yrotation Zrotation
							End Site
							{
								OFFSET 0.006718 0.884892 7.677017
							}
						}
					}
				}
			}
		}
	}
	JOINT LeftUpLeg
	{
		OFFSET 6.914150 1.063580 -1.267883
		CHANNELS 3 Xrotation Yrotation Zrotation
		JOINT LeftUpLegRoll
		{
			OFFSET 0.000000 -0.000003 18.337898
			CHANNELS 3 Xrotation Yrotation Zrotation
			JOINT LeftLeg
			{
				OFFSET 0.000000 -0.000004 22.708397
				CHANNELS 3 Xrotation Yrotation Zrotation
				JOINT LeftLegRoll
				{
					OFFSET 0.000000 -0.000004 22.993393
					CHANNELS 3 Xrotation Yrotation Zrotation
					JOINT LeftFoot
					{
						OFFSET 0.000000 -0.000003 18.752197
						CHANNELS 3 Xrotation Yrotation Zrotation
						JOINT LeftToeBase
						{
							OFFSET 0.000000 -0.000003 15.852005
							CHANNELS 3 Xrotation Yrotation Zrotation
							End Site
							{
								OFFSET -0.030113 0.884892 7.677002
							}
						}
					}
				}
			}
		}
	}
}
MOTION
Frames: 4
Frame Time: 0.041667
56.482601 -17.680311 94.021400 -2.091205 -0.140732 0.589572 -2.553367 -0.032966 0.002577 -1.101331 -0.073813 0.003574 0.543755 -0.073724 0.004485 21.603062 1.628687 -0.992257 0.598616 -2.795847 -0.639343 -14.754281 -41.648434 -16.925952 35.312549 -47.721094 76.278514 -0.000000 0.000001 0.000002 6.645275 3.496260 -0.651216 0.000009 0.000010 -2.999992 -5.000182 -7.999937 -0.000002 -17.227228 36.006336 20.102785 33.025600 53.647813 -68.088319 -0.000000 0.000000 0.000001 3.091851 -6.545171 0.450774 -0.000004 0.000003 3.000004 -5.000175 8.000186 0.000017 -2.221376 179.567326 -0.867179 -179.999991 0.000005 -1.157999 168.360461 -2.229250 -0.672078 0.000002 -0.000001 0.360179 72.273189 7.425678 0.404856 25.456959 -7.355616 0.000011 0.194928 -178.287007 8.636087 -0.000005 -0.000004 -1.263200 -10.158014 3.524351 0.543425 -0.000006 -0.000000 -0.287802 72.842861 -7.662599 0.376386 25.456962 7.355615 -0.000001 
56.488499 -17.707914 94.025307 -2.094016 -0.140928 0.587405 -2.552188 -0.032745 0.002990 -1.099281 -0.072528 0.004086 0.545799 -0.072439 0.004975 21.649318 1.683838 -1.000695 0.521918 -2.889170 -0.637096 -14.751224 -41.667873 -16.922904 35.283804 -47.712618 76.240989 -0.000000 -0.000000 0.000001 6.652812 3.486830 -0.651217 0.000009 0.000011 -2.999991 -5.000182 -7.999938 0.000000 -17.231500 36.008569 20.109025 33.025324 53.645112 -68.088148 -0.000001 -0.000000 0.000003 3.091478 -6.545124 0.450527 -0.000004 0.000003 3.000002 -5.000174 8.000186 0.000015 -2.221148 179.568323 -0.867026 -179.999991 0.000005 -1.157999 168.358289 -2.227266 -0.672756 0.000001 -0.000001 0.360165 72.270191 7.425536 0.406133 25.456957 -7.355615 0.000011 0.198855 -178.286010 8.636358 -0.000005 -0.000004 -1.263630 -10.157220 3.524901 0.543276 -0.000006 -0.000001 -0.287860 72.843325 -7.662372 0.375249 25.456960 7.355615 -0.000001 
56.484200 -17.700016 94.034904 -2.096907 -0.141126 0.585290 -2.550950 -0.032566 0.003404 -1.097161 -0.071260 0.004609 0.547927 -0.071170 0.005477 21.696005 1.739822 -1.009531 0.444287 -2.983750 -0.635264 -14.747929 -41.687435 -16.919579 35.254527 -47.704302 76.203082 0.000000 0.000000 0.000004 6.660360 3.477410 -0.651214 0.000008 0.000011 -2.999990 -5.000183 -7.999936 -0.000004 -17.235757 36.011291 20.115170 33.024067 53.641980 -68.087075 -0.000000 0.000000 -0.000002 3.090873 -6.544917 0.450280 -0.000004 0.000003 3.000000 -5.000176 8.000187 0.000013 -2.221138 179.569321 -0.866856 -179.999991 0.000005 -1.157999 168.355584 -2.226268 -0.672659 0.000002 -0.000001 0.360151 72.267199 7.425389 0.407410 25.456955 -7.355615 0.000011 0.202813 -178.285013 8.636597 -0.000005 -0.000004 -1.264080 -10.156525 3.525490 0.543130 -0.000006 -0.000000 -0.287919 72.843899 -7.662194 0.374318 25.456967 7.355617 -0.000001 
56.479500 -17.683313 94.030403 -2.099848 -0.141342 0.583256 -2.549679 -0.032429 0.003814 -1.094970 -0.070035 0.005137 0.550112 -0.069944 0.005984 21.742014 1.795433 -1.018571 0.367430 -3.077596 -0.633873 -14.744650 -41.706508 -16.916193 35.225249 -47.696608 76.165502 -0.000000 0.000000 0.000000 6.667808 3.468229 -0.651212 0.000009 0.000010 -2.999988 -5.000182 -7.999939 -0.000001 -17.239739 36.014457 20.121010 33.022226 53.638599 -68.085395 -0.000000 0.000000 -0.000001 3.090066 -6.544543 0.450039 -0.000004 0.000003 3.000003 -5.000176 8.000186 0.000021 -2.221245 179.570331 -0.866679 -179.999991 0.000005 -1.157999 168.352593 -2.224290 -0.672373 0.000003 -0.000001 0.360136 72.264303 7.425237 0.408779 25.456959 -7.355616 0.000011 0.206797 -178.284016 8.636802 -0.000005 -0.000004 -1.264530 -10.155830 3.526108 0.542980 -0.000006 -0.000000 -0.287975 72.844521 -7.662102 0.373673 25.456959 7.355617 -0.000001 
